<svg id="Layer_1" data-name="Layer 1" xmlns="http://www.w3.org/2000/svg" viewBox="0 0 1013.9 177.8"><defs><style>.cls-1{fill:#fff;}</style></defs><path class="cls-1" d="M540,462V587.13a12,12,0,0,1-11.88,11.67,11.64,11.64,0,0,1-11.67-11.67v-89.3l-30.54,42.42a11.56,11.56,0,0,1-9.55,4.88H476a12,12,0,0,1-9.76-4.88l-30.33-42.42v89.3a11.77,11.77,0,0,1-23.54,0V462A11.76,11.76,0,0,1,424,450.32h.64A11.48,11.48,0,0,1,434,455.2l42.21,58.54,42.21-58.54a11.59,11.59,0,0,1,9.55-4.88h.21C534.49,450.53,540,455.62,540,462Z" transform="translate(-412.32 -421)"/><path class="cls-1" d="M612.13,466.23a11.45,11.45,0,0,1-11.46,11.66,11.58,11.58,0,0,1-11.45-11.66v-4.46a11.4,11.4,0,0,1,11.45-11.45,11.28,11.28,0,0,1,11.46,11.45Zm0,38.39v82.72a11.28,11.28,0,0,1-11.46,11.46,11.41,11.41,0,0,1-11.45-11.46V504.62A11.33,11.33,0,0,1,600.67,493C607.25,493,612.13,497.83,612.13,504.62Z" transform="translate(-412.32 -421)"/><path class="cls-1" d="M737.06,536.86v50.69a11.14,11.14,0,0,1-11,11.25,11.46,11.46,0,0,1-11.24-11.25V536.86c0-11.88-10-21.42-22.06-21.42a21.18,21.18,0,0,0-21.21,21.42v50.69a4.17,4.17,0,0,1-.43,2.13,11.59,11.59,0,0,1-11.24,9.12,11.18,11.18,0,0,1-11.24-11.25V504a11.18,11.18,0,0,1,11.24-11.24,11.45,11.45,0,0,1,10.39,6.58,42.39,42.39,0,0,1,22.49-6.58A44.41,44.41,0,0,1,737.06,536.86Z" transform="translate(-412.32 -421)"/><path class="cls-1" d="M771.21,545.77c.21-28.85,22.7-53,51.75-53,27.58,0,49.43,20.58,51.12,49.21V543a5.9,5.9,0,0,1-.21,1.91c-.63,5.09-5.09,8.48-11,8.48H795.39c1.06,4.88,3.39,10.4,7.21,14,4.46,5.1,12.94,8.91,20.36,9.55,7.64.64,16.76-1.27,22.06-5.3,4.46-4.67,13.16-4,15.91-.64,2.76,3,4.88,9.33,0,13.79-10.39,9.54-22.9,14-38,14C793.91,598.58,771.42,574.62,771.21,545.77Zm23.12-10.39h60c-2.12-8.49-12.94-21-31.4-22.49C804.94,513.74,796,526.68,794.33,535.38Z" transform="translate(-412.32 -421)"/><path class="cls-1" d="M905.48,561.89A11.06,11.06,0,0,1,921,560.4c9.33,7.64,25.46,16.55,40.51,16.34,10.61,0,20.16-3.18,26.52-7.85s9.12-10,9.12-15.27a12.13,12.13,0,0,0-1.91-6.79,20,20,0,0,0-6.36-6.36c-6.15-4-16.55-7.64-29.06-10h-.43c-10-1.91-19.3-4.46-27.36-8.28s-15.06-9.12-19.73-16.54a32.56,32.56,0,0,1-4.87-17.39c0-12.73,7.21-23.76,17-31,10-7.21,22.9-11.24,36.69-11.24,20.36,0,35.42,10,46.24,17a10.93,10.93,0,0,1,3,15.06,10.71,10.71,0,0,1-15.06,3.19c-10.82-7.22-21.21-13.58-34.15-13.58-9.54,0-18,3-23.76,7.21s-8.06,8.91-8.06,13.37a10.33,10.33,0,0,0,1.49,5.94,20.51,20.51,0,0,0,5.73,5.51c5.51,3.82,15.06,7.21,26.51,9.33h.42c10.82,2.12,20.79,4.88,29.28,8.91,8.69,4.24,16.33,9.76,21.21,17.61a34.4,34.4,0,0,1,5.09,18c0,13.57-7.64,25.24-18.24,32.87-10.4,7.64-24.18,12.09-39.25,12.09-22.9-.21-42.21-11.66-54.3-21.21A11.28,11.28,0,0,1,905.48,561.89Z" transform="translate(-412.32 -421)"/><path class="cls-1" d="M1096,504.41a12,12,0,0,1-11.88,11.66h-5.31v59.18a11.68,11.68,0,0,1,11.67,11.88,11.5,11.5,0,0,1-11.67,11.67,23.63,23.63,0,0,1-23.54-23.55V516.07h-6.15a11.63,11.63,0,0,1-11.67-11.66,11.5,11.5,0,0,1,11.67-11.67h6.15V462a11.68,11.68,0,0,1,11.88-11.66A11.5,11.5,0,0,1,1078.77,462v30.76h5.31A11.82,11.82,0,0,1,1096,504.41Z" transform="translate(-412.32 -421)"/><path class="cls-1" d="M1216.44,546v41.57a11.33,11.33,0,0,1-11.25,11.25c-5.51,0-9.75-4-11-9.12A48.21,48.21,0,0,1,1166,598.8a49.27,49.27,0,0,1-36.06-15.49A54.28,54.28,0,0,1,1115.47,546c0-14.63,5.3-27.79,14.42-37.33a48.17,48.17,0,0,1,64.27-6.58c1.28-5.3,5.52-9.33,11-9.33a11.37,11.37,0,0,1,11.25,11.45ZM1194,546c0-8.91-3.18-16.54-8.27-21.85a26.24,26.24,0,0,0-19.73-8.69,25.58,25.58,0,0,0-19.72,8.69c-5.09,5.31-8.06,12.94-8.06,21.85a31.83,31.83,0,0,0,8.06,21.85A26.71,26.71,0,0,0,1166,576.1a27.42,27.42,0,0,0,19.73-8.27A32,32,0,0,0,1194,546Z" transform="translate(-412.32 -421)"/><path class="cls-1" d="M1323.34,504a11.31,11.31,0,0,1-11.24,11.24,20.33,20.33,0,0,0-12.73,4,32.11,32.11,0,0,0-9.76,10.19c-5.09,6.78-7.63,14.84-8.69,17.81v40.3a11.56,11.56,0,0,1-11.67,11.25A11.32,11.32,0,0,1,1258,587.55V504a11.14,11.14,0,0,1,11.24-11c6.36,0,11.67,4.88,11.67,11v1.49a27.68,27.68,0,0,1,4.45-4.24A46.5,46.5,0,0,1,1312.1,493,11,11,0,0,1,1323.34,504Z" transform="translate(-412.32 -421)"/><path class="cls-1" d="M1346,568.46a11,11,0,0,1,15.9-1.69c5.52,4.66,15.06,9.54,23.34,9.33a28.31,28.31,0,0,0,14.42-4c3-2.54,3.82-4.67,3.82-6.36a3.12,3.12,0,0,0-.64-2.12c-.21-.64-1.06-1.49-2.76-2.55-3-2.12-9.33-4.45-17-5.94h-.22a81.53,81.53,0,0,1-18.45-5.51,35.47,35.47,0,0,1-14.64-12.31,25.7,25.7,0,0,1-3.6-13.36c0-9.76,5.51-18,12.51-23.33a45.64,45.64,0,0,1,26.09-7.85c14.64,0,25,7,31.82,11.67a11.71,11.71,0,0,1,3.39,15.69,11.22,11.22,0,0,1-15.69,3c-6.79-4.45-12.73-7.85-19.52-7.85a21.63,21.63,0,0,0-12.73,3.82c-2.75,1.91-3.39,3.82-3.39,4.88a2.27,2.27,0,0,0,.43,1.7,5.68,5.68,0,0,0,2.33,2.12c2.76,1.91,8.27,3.82,15.48,5.09l.21.21h.22a76.16,76.16,0,0,1,19.72,6.15c5.73,2.55,11.46,6.58,15.06,12.52a27.42,27.42,0,0,1,4,14c0,10.39-5.72,19.09-13.36,24.6a48.21,48.21,0,0,1-27.57,8.49c-16.55-.22-29.28-7.85-37.76-14.64A11.32,11.32,0,0,1,1346,568.46Z" transform="translate(-412.32 -421)"/><path class="cls-1" d="M604.08,423.56l7.6,15.4a4.6,4.6,0,0,0,3.46,2.52l17,2.47a4.59,4.59,0,0,1,2.54,7.83l-12.3,12a4.63,4.63,0,0,0-1.32,4.07L624,484.77a4.6,4.6,0,0,1-6.67,4.84l-15.2-8a4.62,4.62,0,0,0-4.28,0l-15.2,8a4.6,4.6,0,0,1-6.67-4.84l2.9-16.93a4.57,4.57,0,0,0-1.32-4.07l-12.3-12a4.59,4.59,0,0,1,2.55-7.83l17-2.47a4.61,4.61,0,0,0,3.46-2.52l7.6-15.4A4.6,4.6,0,0,1,604.08,423.56Z" transform="translate(-412.32 -421)"/></svg>